<mxfile host="app.diagrams.net" modified="2023-12-25T20:14:03.499Z" agent="Mozilla/5.0 (Windows NT 10.0; Win64; x64) AppleWebKit/537.36 (KHTML, like Gecko) Chrome/116.0.0.0 Safari/537.36" etag="2jsDI4qAX5pYtVigOgs6" version="22.1.11" type="device">
  <diagram id="d7x9QkdLYVESTeXDn6s2" name="Strona-1">
    <mxGraphModel dx="1451" dy="744" grid="1" gridSize="10" guides="1" tooltips="1" connect="1" arrows="1" fold="1" page="1" pageScale="1" pageWidth="1200" pageHeight="1600" math="0" shadow="0">
      <root>
        <mxCell id="0" />
        <mxCell id="1" parent="0" />
        <mxCell id="qUHiKCZmazpI1G1EhrRY-134" value="" style="swimlane;startSize=0;strokeColor=default;strokeWidth=1;" parent="1" vertex="1">
          <mxGeometry width="1200" height="1540" as="geometry">
            <mxRectangle width="50" height="40" as="alternateBounds" />
          </mxGeometry>
        </mxCell>
        <mxCell id="qUHiKCZmazpI1G1EhrRY-125" value="Background" style="rounded=0;whiteSpace=wrap;html=1;" parent="qUHiKCZmazpI1G1EhrRY-134" vertex="1">
          <mxGeometry x="380.04" y="140" width="120" height="60" as="geometry" />
        </mxCell>
        <mxCell id="qUHiKCZmazpI1G1EhrRY-127" value="Language" style="rounded=0;whiteSpace=wrap;html=1;" parent="qUHiKCZmazpI1G1EhrRY-134" vertex="1">
          <mxGeometry x="700" y="140" width="120" height="60" as="geometry" />
        </mxCell>
        <mxCell id="qUHiKCZmazpI1G1EhrRY-128" value="GlobalUtils" style="rounded=0;whiteSpace=wrap;html=1;" parent="qUHiKCZmazpI1G1EhrRY-134" vertex="1">
          <mxGeometry x="540" y="140" width="120" height="60" as="geometry" />
        </mxCell>
        <mxCell id="qUHiKCZmazpI1G1EhrRY-152" value="Created with: app.diagrams.net" style="text;html=1;strokeColor=none;fillColor=none;align=center;verticalAlign=middle;whiteSpace=wrap;rounded=0;strokeWidth=2;fontStyle=1" parent="qUHiKCZmazpI1G1EhrRY-134" vertex="1">
          <mxGeometry x="1010" width="190" height="30" as="geometry" />
        </mxCell>
        <mxCell id="qUHiKCZmazpI1G1EhrRY-1" value="View" style="rounded=0;whiteSpace=wrap;html=1;" parent="qUHiKCZmazpI1G1EhrRY-134" vertex="1">
          <mxGeometry x="540.0799999999999" y="480" width="120" height="60" as="geometry" />
        </mxCell>
        <mxCell id="qUHiKCZmazpI1G1EhrRY-2" value="Menu" style="rounded=0;whiteSpace=wrap;html=1;" parent="qUHiKCZmazpI1G1EhrRY-134" vertex="1">
          <mxGeometry x="540.0799999999999" y="360" width="120" height="60" as="geometry" />
        </mxCell>
        <mxCell id="qUHiKCZmazpI1G1EhrRY-3" value="extends" style="edgeStyle=orthogonalEdgeStyle;rounded=0;orthogonalLoop=1;jettySize=auto;html=1;dashed=1;" parent="qUHiKCZmazpI1G1EhrRY-134" source="qUHiKCZmazpI1G1EhrRY-1" target="qUHiKCZmazpI1G1EhrRY-2" edge="1">
          <mxGeometry relative="1" as="geometry">
            <mxPoint as="offset" />
          </mxGeometry>
        </mxCell>
        <mxCell id="qUHiKCZmazpI1G1EhrRY-4" value="Levels" style="rounded=0;whiteSpace=wrap;html=1;" parent="qUHiKCZmazpI1G1EhrRY-134" vertex="1">
          <mxGeometry x="70.00000000000001" y="560" width="120" height="60" as="geometry" />
        </mxCell>
        <mxCell id="qUHiKCZmazpI1G1EhrRY-9" style="edgeStyle=orthogonalEdgeStyle;rounded=0;orthogonalLoop=1;jettySize=auto;html=1;exitX=0;exitY=0.5;exitDx=0;exitDy=0;entryX=0;entryY=0.5;entryDx=0;entryDy=0;dashed=1;" parent="qUHiKCZmazpI1G1EhrRY-134" source="qUHiKCZmazpI1G1EhrRY-1" target="qUHiKCZmazpI1G1EhrRY-4" edge="1">
          <mxGeometry relative="1" as="geometry">
            <Array as="points">
              <mxPoint x="40" y="510" />
              <mxPoint x="40" y="590" />
            </Array>
          </mxGeometry>
        </mxCell>
        <mxCell id="qUHiKCZmazpI1G1EhrRY-5" value="creates" style="edgeStyle=orthogonalEdgeStyle;rounded=0;orthogonalLoop=1;jettySize=auto;html=1;" parent="qUHiKCZmazpI1G1EhrRY-134" source="qUHiKCZmazpI1G1EhrRY-2" target="qUHiKCZmazpI1G1EhrRY-4" edge="1">
          <mxGeometry x="-0.245" y="-10" relative="1" as="geometry">
            <mxPoint as="offset" />
          </mxGeometry>
        </mxCell>
        <mxCell id="qUHiKCZmazpI1G1EhrRY-6" value="EditorMenu" style="rounded=0;whiteSpace=wrap;html=1;" parent="qUHiKCZmazpI1G1EhrRY-134" vertex="1">
          <mxGeometry x="1009.9999999999999" y="560" width="120" height="60" as="geometry" />
        </mxCell>
        <mxCell id="qUHiKCZmazpI1G1EhrRY-8" style="edgeStyle=orthogonalEdgeStyle;rounded=0;orthogonalLoop=1;jettySize=auto;html=1;exitX=1;exitY=0.5;exitDx=0;exitDy=0;entryX=1;entryY=0.5;entryDx=0;entryDy=0;dashed=1;" parent="qUHiKCZmazpI1G1EhrRY-134" source="qUHiKCZmazpI1G1EhrRY-1" target="qUHiKCZmazpI1G1EhrRY-6" edge="1">
          <mxGeometry relative="1" as="geometry">
            <Array as="points">
              <mxPoint x="1160" y="510" />
              <mxPoint x="1160" y="590" />
            </Array>
          </mxGeometry>
        </mxCell>
        <mxCell id="qUHiKCZmazpI1G1EhrRY-7" value="creates" style="edgeStyle=orthogonalEdgeStyle;rounded=0;orthogonalLoop=1;jettySize=auto;html=1;exitX=1;exitY=0.5;exitDx=0;exitDy=0;entryX=0.5;entryY=0;entryDx=0;entryDy=0;" parent="qUHiKCZmazpI1G1EhrRY-134" source="qUHiKCZmazpI1G1EhrRY-2" target="qUHiKCZmazpI1G1EhrRY-6" edge="1">
          <mxGeometry x="-0.2454" y="10" relative="1" as="geometry">
            <mxPoint as="offset" />
          </mxGeometry>
        </mxCell>
        <mxCell id="-zgmBbZG3CjOHdHZ8R6g-4" value="creates" style="edgeStyle=orthogonalEdgeStyle;rounded=0;orthogonalLoop=1;jettySize=auto;html=1;entryX=0;entryY=0.5;entryDx=0;entryDy=0;" edge="1" parent="qUHiKCZmazpI1G1EhrRY-134" source="qUHiKCZmazpI1G1EhrRY-10" target="qUHiKCZmazpI1G1EhrRY-43">
          <mxGeometry x="0.7191" y="10" relative="1" as="geometry">
            <Array as="points">
              <mxPoint x="230" y="710" />
              <mxPoint x="230" y="1060" />
            </Array>
            <mxPoint as="offset" />
          </mxGeometry>
        </mxCell>
        <mxCell id="qUHiKCZmazpI1G1EhrRY-10" value="Game" style="rounded=0;whiteSpace=wrap;html=1;" parent="qUHiKCZmazpI1G1EhrRY-134" vertex="1">
          <mxGeometry x="70.00000000000001" y="680" width="120" height="60" as="geometry" />
        </mxCell>
        <mxCell id="qUHiKCZmazpI1G1EhrRY-14" value="extends" style="edgeStyle=orthogonalEdgeStyle;rounded=0;orthogonalLoop=1;jettySize=auto;html=1;exitX=0;exitY=0.5;exitDx=0;exitDy=0;entryX=0;entryY=0.5;entryDx=0;entryDy=0;dashed=1;" parent="qUHiKCZmazpI1G1EhrRY-134" source="qUHiKCZmazpI1G1EhrRY-1" target="qUHiKCZmazpI1G1EhrRY-10" edge="1">
          <mxGeometry x="-0.8234" y="-10" relative="1" as="geometry">
            <Array as="points">
              <mxPoint x="40" y="510" />
              <mxPoint x="40" y="710" />
            </Array>
            <mxPoint as="offset" />
          </mxGeometry>
        </mxCell>
        <mxCell id="qUHiKCZmazpI1G1EhrRY-13" value="creates" style="edgeStyle=orthogonalEdgeStyle;rounded=0;orthogonalLoop=1;jettySize=auto;html=1;exitX=0.5;exitY=1;exitDx=0;exitDy=0;entryX=0.5;entryY=0;entryDx=0;entryDy=0;" parent="qUHiKCZmazpI1G1EhrRY-134" source="qUHiKCZmazpI1G1EhrRY-4" target="qUHiKCZmazpI1G1EhrRY-10" edge="1">
          <mxGeometry x="-0.3333" relative="1" as="geometry">
            <mxPoint as="offset" />
          </mxGeometry>
        </mxCell>
        <mxCell id="qUHiKCZmazpI1G1EhrRY-58" style="edgeStyle=orthogonalEdgeStyle;rounded=0;orthogonalLoop=1;jettySize=auto;html=1;exitX=0;exitY=0.5;exitDx=0;exitDy=0;" parent="qUHiKCZmazpI1G1EhrRY-134" source="qUHiKCZmazpI1G1EhrRY-6" target="qUHiKCZmazpI1G1EhrRY-20" edge="1">
          <mxGeometry relative="1" as="geometry">
            <Array as="points">
              <mxPoint x="970" y="590" />
              <mxPoint x="970" y="750" />
            </Array>
          </mxGeometry>
        </mxCell>
        <mxCell id="qUHiKCZmazpI1G1EhrRY-59" style="edgeStyle=orthogonalEdgeStyle;rounded=0;orthogonalLoop=1;jettySize=auto;html=1;entryX=1;entryY=0.5;entryDx=0;entryDy=0;exitX=0;exitY=0.5;exitDx=0;exitDy=0;" parent="qUHiKCZmazpI1G1EhrRY-134" source="qUHiKCZmazpI1G1EhrRY-6" target="qUHiKCZmazpI1G1EhrRY-42" edge="1">
          <mxGeometry relative="1" as="geometry">
            <Array as="points">
              <mxPoint x="970" y="590" />
              <mxPoint x="970" y="990" />
            </Array>
          </mxGeometry>
        </mxCell>
        <mxCell id="qUHiKCZmazpI1G1EhrRY-60" value="creates" style="edgeStyle=orthogonalEdgeStyle;rounded=0;orthogonalLoop=1;jettySize=auto;html=1;entryX=1;entryY=0.5;entryDx=0;entryDy=0;exitX=0;exitY=0.5;exitDx=0;exitDy=0;" parent="qUHiKCZmazpI1G1EhrRY-134" source="qUHiKCZmazpI1G1EhrRY-6" target="qUHiKCZmazpI1G1EhrRY-33" edge="1">
          <mxGeometry x="-0.7692" relative="1" as="geometry">
            <Array as="points">
              <mxPoint x="970" y="590" />
              <mxPoint x="970" y="1260" />
            </Array>
            <mxPoint as="offset" />
          </mxGeometry>
        </mxCell>
        <mxCell id="qUHiKCZmazpI1G1EhrRY-11" value="Editor" style="rounded=0;whiteSpace=wrap;html=1;" parent="qUHiKCZmazpI1G1EhrRY-134" vertex="1">
          <mxGeometry x="1009.9999999999999" y="680" width="120" height="60" as="geometry" />
        </mxCell>
        <mxCell id="qUHiKCZmazpI1G1EhrRY-15" value="extends" style="edgeStyle=orthogonalEdgeStyle;rounded=0;orthogonalLoop=1;jettySize=auto;html=1;exitX=1;exitY=0.5;exitDx=0;exitDy=0;entryX=1;entryY=0.5;entryDx=0;entryDy=0;dashed=1;" parent="qUHiKCZmazpI1G1EhrRY-134" source="qUHiKCZmazpI1G1EhrRY-1" target="qUHiKCZmazpI1G1EhrRY-11" edge="1">
          <mxGeometry x="-0.8237" y="10" relative="1" as="geometry">
            <Array as="points">
              <mxPoint x="1160" y="510" />
              <mxPoint x="1160" y="710" />
            </Array>
            <mxPoint as="offset" />
          </mxGeometry>
        </mxCell>
        <mxCell id="qUHiKCZmazpI1G1EhrRY-16" value="Bridges" style="swimlane;whiteSpace=wrap;html=1;fontSize=13;" parent="qUHiKCZmazpI1G1EhrRY-134" vertex="1">
          <mxGeometry x="260.08" y="680" width="680" height="220" as="geometry" />
        </mxCell>
        <mxCell id="qUHiKCZmazpI1G1EhrRY-88" value="uses" style="edgeStyle=orthogonalEdgeStyle;rounded=0;orthogonalLoop=1;jettySize=auto;html=1;exitX=0;exitY=0.5;exitDx=0;exitDy=0;entryX=0.5;entryY=1;entryDx=0;entryDy=0;dashed=1;dashPattern=1 2;startArrow=classic;startFill=1;endArrow=none;endFill=0;" parent="qUHiKCZmazpI1G1EhrRY-16" source="qUHiKCZmazpI1G1EhrRY-17" target="qUHiKCZmazpI1G1EhrRY-18" edge="1">
          <mxGeometry x="-0.3" y="-10" relative="1" as="geometry">
            <mxPoint x="1" as="offset" />
          </mxGeometry>
        </mxCell>
        <mxCell id="qUHiKCZmazpI1G1EhrRY-89" value="uses" style="edgeStyle=orthogonalEdgeStyle;rounded=0;orthogonalLoop=1;jettySize=auto;html=1;exitX=1;exitY=0.5;exitDx=0;exitDy=0;entryX=0.5;entryY=1;entryDx=0;entryDy=0;dashed=1;dashPattern=1 2;startArrow=classic;startFill=1;endArrow=none;endFill=0;" parent="qUHiKCZmazpI1G1EhrRY-16" source="qUHiKCZmazpI1G1EhrRY-17" target="qUHiKCZmazpI1G1EhrRY-20" edge="1">
          <mxGeometry x="-0.3689" y="10" relative="1" as="geometry">
            <mxPoint as="offset" />
          </mxGeometry>
        </mxCell>
        <mxCell id="qUHiKCZmazpI1G1EhrRY-17" value="BridgesUtils" style="rounded=0;whiteSpace=wrap;html=1;" parent="qUHiKCZmazpI1G1EhrRY-16" vertex="1">
          <mxGeometry x="349.92" y="130" width="120" height="60" as="geometry" />
        </mxCell>
        <mxCell id="qUHiKCZmazpI1G1EhrRY-24" value="creates" style="edgeStyle=orthogonalEdgeStyle;rounded=0;orthogonalLoop=1;jettySize=auto;html=1;exitX=1;exitY=0.5;exitDx=0;exitDy=0;entryX=0;entryY=0.5;entryDx=0;entryDy=0;" parent="qUHiKCZmazpI1G1EhrRY-16" source="qUHiKCZmazpI1G1EhrRY-18" target="qUHiKCZmazpI1G1EhrRY-19" edge="1">
          <mxGeometry x="-0.001" y="10" relative="1" as="geometry">
            <mxPoint as="offset" />
          </mxGeometry>
        </mxCell>
        <mxCell id="qUHiKCZmazpI1G1EhrRY-18" value="BridgesGrid" style="rounded=0;whiteSpace=wrap;html=1;" parent="qUHiKCZmazpI1G1EhrRY-16" vertex="1">
          <mxGeometry x="150" y="40" width="120" height="60" as="geometry" />
        </mxCell>
        <mxCell id="qUHiKCZmazpI1G1EhrRY-19" value="BridgesIsland" style="rounded=0;whiteSpace=wrap;html=1;" parent="qUHiKCZmazpI1G1EhrRY-16" vertex="1">
          <mxGeometry x="349.92" y="40" width="120" height="60" as="geometry" />
        </mxCell>
        <mxCell id="qUHiKCZmazpI1G1EhrRY-57" value="creates" style="edgeStyle=orthogonalEdgeStyle;rounded=0;orthogonalLoop=1;jettySize=auto;html=1;entryX=1;entryY=0.5;entryDx=0;entryDy=0;" parent="qUHiKCZmazpI1G1EhrRY-16" source="qUHiKCZmazpI1G1EhrRY-20" target="qUHiKCZmazpI1G1EhrRY-19" edge="1">
          <mxGeometry x="0.001" y="-10" relative="1" as="geometry">
            <mxPoint as="offset" />
          </mxGeometry>
        </mxCell>
        <mxCell id="qUHiKCZmazpI1G1EhrRY-20" value="BridgesEditor" style="rounded=0;whiteSpace=wrap;html=1;" parent="qUHiKCZmazpI1G1EhrRY-16" vertex="1">
          <mxGeometry x="539.92" y="40" width="120" height="60" as="geometry" />
        </mxCell>
        <mxCell id="qUHiKCZmazpI1G1EhrRY-83" value="bridges_levels" style="rounded=1;whiteSpace=wrap;html=1;" parent="qUHiKCZmazpI1G1EhrRY-16" vertex="1">
          <mxGeometry x="19.92" y="150" width="120" height="60" as="geometry" />
        </mxCell>
        <mxCell id="qUHiKCZmazpI1G1EhrRY-61" value="creates" style="edgeStyle=orthogonalEdgeStyle;rounded=0;orthogonalLoop=1;jettySize=auto;html=1;entryX=0;entryY=0.5;entryDx=0;entryDy=0;exitX=1;exitY=0.5;exitDx=0;exitDy=0;" parent="qUHiKCZmazpI1G1EhrRY-134" source="qUHiKCZmazpI1G1EhrRY-10" target="qUHiKCZmazpI1G1EhrRY-18" edge="1">
          <mxGeometry x="0.3842" y="10" relative="1" as="geometry">
            <Array as="points">
              <mxPoint x="230" y="710" />
              <mxPoint x="230" y="750" />
            </Array>
            <mxPoint as="offset" />
          </mxGeometry>
        </mxCell>
        <mxCell id="qUHiKCZmazpI1G1EhrRY-66" value="extends" style="edgeStyle=orthogonalEdgeStyle;rounded=0;orthogonalLoop=1;jettySize=auto;html=1;exitX=0.5;exitY=1;exitDx=0;exitDy=0;entryX=1;entryY=0.75;entryDx=0;entryDy=0;dashed=1;spacingBottom=-8;" parent="qUHiKCZmazpI1G1EhrRY-134" source="qUHiKCZmazpI1G1EhrRY-11" target="qUHiKCZmazpI1G1EhrRY-20" edge="1">
          <mxGeometry x="-0.2571" y="5" relative="1" as="geometry">
            <Array as="points">
              <mxPoint x="1070" y="765" />
            </Array>
            <mxPoint as="offset" />
          </mxGeometry>
        </mxCell>
        <mxCell id="qUHiKCZmazpI1G1EhrRY-25" value="Squares" style="swimlane;whiteSpace=wrap;html=1;fontSize=13;" parent="qUHiKCZmazpI1G1EhrRY-134" vertex="1">
          <mxGeometry x="260.08000000000004" y="1190" width="680" height="300" as="geometry" />
        </mxCell>
        <mxCell id="qUHiKCZmazpI1G1EhrRY-94" value="" style="edgeStyle=orthogonalEdgeStyle;rounded=0;orthogonalLoop=1;jettySize=auto;html=1;exitX=0;exitY=0.5;exitDx=0;exitDy=0;entryX=0.5;entryY=1;entryDx=0;entryDy=0;dashed=1;dashPattern=1 2;startArrow=classic;startFill=1;endArrow=none;endFill=0;" parent="qUHiKCZmazpI1G1EhrRY-25" source="qUHiKCZmazpI1G1EhrRY-29" target="qUHiKCZmazpI1G1EhrRY-31" edge="1">
          <mxGeometry x="0.7272" relative="1" as="geometry">
            <mxPoint as="offset" />
          </mxGeometry>
        </mxCell>
        <mxCell id="qUHiKCZmazpI1G1EhrRY-95" value="uses" style="edgeStyle=orthogonalEdgeStyle;rounded=0;orthogonalLoop=1;jettySize=auto;html=1;exitX=0.5;exitY=0;exitDx=0;exitDy=0;entryX=0.5;entryY=1;entryDx=0;entryDy=0;dashed=1;dashPattern=1 2;startArrow=classic;startFill=1;endArrow=none;endFill=0;" parent="qUHiKCZmazpI1G1EhrRY-25" source="qUHiKCZmazpI1G1EhrRY-29" target="qUHiKCZmazpI1G1EhrRY-33" edge="1">
          <mxGeometry relative="1" as="geometry">
            <mxPoint y="1" as="offset" />
          </mxGeometry>
        </mxCell>
        <mxCell id="qUHiKCZmazpI1G1EhrRY-96" value="uses" style="edgeStyle=orthogonalEdgeStyle;rounded=0;orthogonalLoop=1;jettySize=auto;html=1;exitX=0;exitY=0.5;exitDx=0;exitDy=0;entryX=0.5;entryY=1;entryDx=0;entryDy=0;dashed=1;dashPattern=1 2;startArrow=classic;startFill=1;endArrow=none;endFill=0;" parent="qUHiKCZmazpI1G1EhrRY-25" source="qUHiKCZmazpI1G1EhrRY-29" target="qUHiKCZmazpI1G1EhrRY-32" edge="1">
          <mxGeometry x="-0.4286" y="-10" relative="1" as="geometry">
            <mxPoint as="offset" />
          </mxGeometry>
        </mxCell>
        <mxCell id="qUHiKCZmazpI1G1EhrRY-29" value="SquaresUtils" style="rounded=0;whiteSpace=wrap;html=1;" parent="qUHiKCZmazpI1G1EhrRY-25" vertex="1">
          <mxGeometry x="539.9200000000001" y="160" width="120" height="60" as="geometry" />
        </mxCell>
        <mxCell id="qUHiKCZmazpI1G1EhrRY-30" value="creates" style="edgeStyle=orthogonalEdgeStyle;rounded=0;orthogonalLoop=1;jettySize=auto;html=1;exitX=1;exitY=0.5;exitDx=0;exitDy=0;entryX=0;entryY=0.5;entryDx=0;entryDy=0;spacing=2;spacingLeft=-6;" parent="qUHiKCZmazpI1G1EhrRY-25" source="qUHiKCZmazpI1G1EhrRY-31" target="qUHiKCZmazpI1G1EhrRY-32" edge="1">
          <mxGeometry y="10" relative="1" as="geometry">
            <mxPoint as="offset" />
          </mxGeometry>
        </mxCell>
        <mxCell id="qUHiKCZmazpI1G1EhrRY-31" value="SquaresGrid" style="rounded=0;whiteSpace=wrap;html=1;" parent="qUHiKCZmazpI1G1EhrRY-25" vertex="1">
          <mxGeometry x="179.92000000000002" y="40" width="120" height="60" as="geometry" />
        </mxCell>
        <mxCell id="qUHiKCZmazpI1G1EhrRY-32" value="SquaresTile" style="rounded=0;whiteSpace=wrap;html=1;" parent="qUHiKCZmazpI1G1EhrRY-25" vertex="1">
          <mxGeometry x="359.92" y="40" width="120" height="60" as="geometry" />
        </mxCell>
        <mxCell id="qUHiKCZmazpI1G1EhrRY-33" value="SquaresEditor" style="rounded=0;whiteSpace=wrap;html=1;" parent="qUHiKCZmazpI1G1EhrRY-25" vertex="1">
          <mxGeometry x="539.92" y="40" width="120" height="60" as="geometry" />
        </mxCell>
        <mxCell id="qUHiKCZmazpI1G1EhrRY-86" value="normal_levels" style="rounded=1;whiteSpace=wrap;html=1;" parent="qUHiKCZmazpI1G1EhrRY-25" vertex="1">
          <mxGeometry x="19.92" y="160" width="120" height="60" as="geometry" />
        </mxCell>
        <mxCell id="qUHiKCZmazpI1G1EhrRY-87" value="hard_levels" style="rounded=1;whiteSpace=wrap;html=1;" parent="qUHiKCZmazpI1G1EhrRY-25" vertex="1">
          <mxGeometry x="19.92" y="230" width="120" height="60" as="geometry" />
        </mxCell>
        <mxCell id="qUHiKCZmazpI1G1EhrRY-85" value="easy_levels" style="rounded=1;whiteSpace=wrap;html=1;" parent="qUHiKCZmazpI1G1EhrRY-25" vertex="1">
          <mxGeometry x="19.92" y="90" width="120" height="60" as="geometry" />
        </mxCell>
        <mxCell id="qUHiKCZmazpI1G1EhrRY-63" value="creates" style="edgeStyle=orthogonalEdgeStyle;rounded=0;orthogonalLoop=1;jettySize=auto;html=1;entryX=0;entryY=0.5;entryDx=0;entryDy=0;exitX=1;exitY=0.5;exitDx=0;exitDy=0;" parent="qUHiKCZmazpI1G1EhrRY-134" source="qUHiKCZmazpI1G1EhrRY-10" target="qUHiKCZmazpI1G1EhrRY-31" edge="1">
          <mxGeometry x="0.775" y="10" relative="1" as="geometry">
            <Array as="points">
              <mxPoint x="230" y="710" />
              <mxPoint x="230" y="1260" />
            </Array>
            <mxPoint as="offset" />
          </mxGeometry>
        </mxCell>
        <mxCell id="qUHiKCZmazpI1G1EhrRY-68" value="extends" style="edgeStyle=orthogonalEdgeStyle;rounded=0;orthogonalLoop=1;jettySize=auto;html=1;exitX=0.5;exitY=1;exitDx=0;exitDy=0;entryX=1;entryY=0.75;entryDx=0;entryDy=0;dashed=1;spacingBottom=-8;" parent="qUHiKCZmazpI1G1EhrRY-134" source="qUHiKCZmazpI1G1EhrRY-11" target="qUHiKCZmazpI1G1EhrRY-33" edge="1">
          <mxGeometry x="0.708" y="5" relative="1" as="geometry">
            <mxPoint as="offset" />
          </mxGeometry>
        </mxCell>
        <mxCell id="qUHiKCZmazpI1G1EhrRY-34" value="Pipes and Sliders" style="swimlane;whiteSpace=wrap;html=1;fontSize=13;" parent="qUHiKCZmazpI1G1EhrRY-134" vertex="1">
          <mxGeometry x="260" y="920" width="680" height="250" as="geometry" />
        </mxCell>
        <mxCell id="qUHiKCZmazpI1G1EhrRY-90" value="uses" style="edgeStyle=orthogonalEdgeStyle;rounded=0;orthogonalLoop=1;jettySize=auto;html=1;exitX=0.5;exitY=0;exitDx=0;exitDy=0;entryX=0.5;entryY=1;entryDx=0;entryDy=0;dashed=1;dashPattern=1 2;startArrow=classic;startFill=1;endArrow=none;endFill=0;" parent="qUHiKCZmazpI1G1EhrRY-34" source="qUHiKCZmazpI1G1EhrRY-38" target="qUHiKCZmazpI1G1EhrRY-42" edge="1">
          <mxGeometry relative="1" as="geometry">
            <mxPoint as="offset" />
          </mxGeometry>
        </mxCell>
        <mxCell id="qUHiKCZmazpI1G1EhrRY-91" value="" style="edgeStyle=orthogonalEdgeStyle;rounded=0;orthogonalLoop=1;jettySize=auto;html=1;exitX=0;exitY=0.5;exitDx=0;exitDy=0;entryX=0.5;entryY=1;entryDx=0;entryDy=0;dashed=1;dashPattern=1 2;startArrow=classic;startFill=1;endArrow=none;endFill=0;" parent="qUHiKCZmazpI1G1EhrRY-34" source="qUHiKCZmazpI1G1EhrRY-38" target="qUHiKCZmazpI1G1EhrRY-41" edge="1">
          <mxGeometry x="0.5714" relative="1" as="geometry">
            <mxPoint as="offset" />
          </mxGeometry>
        </mxCell>
        <mxCell id="qUHiKCZmazpI1G1EhrRY-92" value="" style="edgeStyle=orthogonalEdgeStyle;rounded=0;orthogonalLoop=1;jettySize=auto;html=1;exitX=0;exitY=0.5;exitDx=0;exitDy=0;entryX=1;entryY=0.75;entryDx=0;entryDy=0;dashed=1;dashPattern=1 2;startArrow=classic;startFill=1;endArrow=none;endFill=0;" parent="qUHiKCZmazpI1G1EhrRY-34" source="qUHiKCZmazpI1G1EhrRY-38" target="qUHiKCZmazpI1G1EhrRY-40" edge="1">
          <mxGeometry relative="1" as="geometry">
            <Array as="points">
              <mxPoint x="340" y="190" />
              <mxPoint x="340" y="85" />
            </Array>
          </mxGeometry>
        </mxCell>
        <mxCell id="qUHiKCZmazpI1G1EhrRY-93" value="uses" style="edgeStyle=orthogonalEdgeStyle;rounded=0;orthogonalLoop=1;jettySize=auto;html=1;exitX=0;exitY=0.5;exitDx=0;exitDy=0;entryX=0.5;entryY=1;entryDx=0;entryDy=0;dashed=1;dashPattern=1 2;startArrow=classic;startFill=1;endArrow=none;endFill=0;" parent="qUHiKCZmazpI1G1EhrRY-34" source="qUHiKCZmazpI1G1EhrRY-38" target="qUHiKCZmazpI1G1EhrRY-43" edge="1">
          <mxGeometry x="-0.7143" y="-10" relative="1" as="geometry">
            <Array as="points">
              <mxPoint x="210" y="190" />
            </Array>
            <mxPoint x="-1" as="offset" />
          </mxGeometry>
        </mxCell>
        <mxCell id="qUHiKCZmazpI1G1EhrRY-38" value="PipesUtils" style="rounded=0;whiteSpace=wrap;html=1;" parent="qUHiKCZmazpI1G1EhrRY-34" vertex="1">
          <mxGeometry x="540" y="160" width="120" height="60" as="geometry" />
        </mxCell>
        <mxCell id="qUHiKCZmazpI1G1EhrRY-40" value="PipesGrid" style="rounded=0;whiteSpace=wrap;html=1;" parent="qUHiKCZmazpI1G1EhrRY-34" vertex="1">
          <mxGeometry x="150" y="40" width="120" height="60" as="geometry" />
        </mxCell>
        <mxCell id="qUHiKCZmazpI1G1EhrRY-41" value="PipesTile" style="rounded=0;whiteSpace=wrap;html=1;" parent="qUHiKCZmazpI1G1EhrRY-34" vertex="1">
          <mxGeometry x="380" y="40" width="120" height="60" as="geometry" />
        </mxCell>
        <mxCell id="qUHiKCZmazpI1G1EhrRY-42" value="PipesEditor" style="rounded=0;whiteSpace=wrap;html=1;" parent="qUHiKCZmazpI1G1EhrRY-34" vertex="1">
          <mxGeometry x="540" y="40" width="120" height="60" as="geometry" />
        </mxCell>
        <mxCell id="qUHiKCZmazpI1G1EhrRY-48" value="" style="edgeStyle=orthogonalEdgeStyle;rounded=0;orthogonalLoop=1;jettySize=auto;html=1;entryX=0;entryY=0.5;entryDx=0;entryDy=0;" parent="qUHiKCZmazpI1G1EhrRY-34" source="qUHiKCZmazpI1G1EhrRY-43" target="qUHiKCZmazpI1G1EhrRY-41" edge="1">
          <mxGeometry x="0.0005" relative="1" as="geometry">
            <Array as="points">
              <mxPoint x="300" y="140" />
              <mxPoint x="300" y="70" />
            </Array>
            <mxPoint as="offset" />
          </mxGeometry>
        </mxCell>
        <mxCell id="qUHiKCZmazpI1G1EhrRY-43" value="SlidersGrid" style="rounded=0;whiteSpace=wrap;html=1;" parent="qUHiKCZmazpI1G1EhrRY-34" vertex="1">
          <mxGeometry x="150" y="110" width="120" height="60" as="geometry" />
        </mxCell>
        <mxCell id="qUHiKCZmazpI1G1EhrRY-84" value="pipes_levels" style="rounded=1;whiteSpace=wrap;html=1;" parent="qUHiKCZmazpI1G1EhrRY-34" vertex="1">
          <mxGeometry x="19.92" y="180" width="120" height="60" as="geometry" />
        </mxCell>
        <mxCell id="qUHiKCZmazpI1G1EhrRY-39" value="creates" style="edgeStyle=orthogonalEdgeStyle;rounded=0;orthogonalLoop=1;jettySize=auto;html=1;exitX=1;exitY=0.5;exitDx=0;exitDy=0;entryX=0;entryY=0.5;entryDx=0;entryDy=0;" parent="qUHiKCZmazpI1G1EhrRY-34" source="qUHiKCZmazpI1G1EhrRY-40" target="qUHiKCZmazpI1G1EhrRY-41" edge="1">
          <mxGeometry x="0.2713" y="10" relative="1" as="geometry">
            <mxPoint as="offset" />
          </mxGeometry>
        </mxCell>
        <mxCell id="qUHiKCZmazpI1G1EhrRY-62" value="creates" style="edgeStyle=orthogonalEdgeStyle;rounded=0;orthogonalLoop=1;jettySize=auto;html=1;entryX=0;entryY=0.5;entryDx=0;entryDy=0;exitX=1;exitY=0.5;exitDx=0;exitDy=0;" parent="qUHiKCZmazpI1G1EhrRY-134" source="qUHiKCZmazpI1G1EhrRY-10" target="qUHiKCZmazpI1G1EhrRY-40" edge="1">
          <mxGeometry x="0.6797" y="10" relative="1" as="geometry">
            <Array as="points">
              <mxPoint x="230" y="710" />
              <mxPoint x="230" y="990" />
            </Array>
            <mxPoint as="offset" />
          </mxGeometry>
        </mxCell>
        <mxCell id="qUHiKCZmazpI1G1EhrRY-67" value="extends" style="edgeStyle=orthogonalEdgeStyle;rounded=0;orthogonalLoop=1;jettySize=auto;html=1;exitX=0.5;exitY=1;exitDx=0;exitDy=0;entryX=1;entryY=0.75;entryDx=0;entryDy=0;dashed=1;spacingBottom=-8;" parent="qUHiKCZmazpI1G1EhrRY-134" source="qUHiKCZmazpI1G1EhrRY-11" target="qUHiKCZmazpI1G1EhrRY-42" edge="1">
          <mxGeometry x="0.5184" y="5" relative="1" as="geometry">
            <mxPoint as="offset" />
          </mxGeometry>
        </mxCell>
        <mxCell id="qUHiKCZmazpI1G1EhrRY-111" value="uses" style="edgeStyle=orthogonalEdgeStyle;rounded=0;orthogonalLoop=1;jettySize=auto;html=1;exitX=0;exitY=0.5;exitDx=0;exitDy=0;entryX=1;entryY=1;entryDx=0;entryDy=0;dashed=1;dashPattern=1 2;endArrow=none;endFill=0;startArrow=classic;startFill=1;" parent="qUHiKCZmazpI1G1EhrRY-134" source="qUHiKCZmazpI1G1EhrRY-83" target="qUHiKCZmazpI1G1EhrRY-10" edge="1">
          <mxGeometry x="0.4543" relative="1" as="geometry">
            <mxPoint as="offset" />
          </mxGeometry>
        </mxCell>
        <mxCell id="qUHiKCZmazpI1G1EhrRY-112" value="uses" style="edgeStyle=orthogonalEdgeStyle;rounded=0;orthogonalLoop=1;jettySize=auto;html=1;exitX=0;exitY=0.5;exitDx=0;exitDy=0;entryX=0.75;entryY=1;entryDx=0;entryDy=0;dashed=1;dashPattern=1 2;startArrow=classic;startFill=1;endArrow=none;endFill=0;" parent="qUHiKCZmazpI1G1EhrRY-134" source="qUHiKCZmazpI1G1EhrRY-84" target="qUHiKCZmazpI1G1EhrRY-10" edge="1">
          <mxGeometry x="0.6862" relative="1" as="geometry">
            <mxPoint as="offset" />
          </mxGeometry>
        </mxCell>
        <mxCell id="qUHiKCZmazpI1G1EhrRY-113" value="uses" style="edgeStyle=orthogonalEdgeStyle;rounded=0;orthogonalLoop=1;jettySize=auto;html=1;exitX=0;exitY=0.5;exitDx=0;exitDy=0;entryX=0.5;entryY=1;entryDx=0;entryDy=0;dashed=1;dashPattern=1 2;startArrow=classic;startFill=1;endArrow=none;endFill=0;" parent="qUHiKCZmazpI1G1EhrRY-134" source="qUHiKCZmazpI1G1EhrRY-85" target="qUHiKCZmazpI1G1EhrRY-10" edge="1">
          <mxGeometry x="0.7222" relative="1" as="geometry">
            <mxPoint as="offset" />
          </mxGeometry>
        </mxCell>
        <mxCell id="qUHiKCZmazpI1G1EhrRY-114" value="uses" style="edgeStyle=orthogonalEdgeStyle;rounded=0;orthogonalLoop=1;jettySize=auto;html=1;exitX=0;exitY=0.5;exitDx=0;exitDy=0;dashed=1;dashPattern=1 2;endArrow=none;endFill=0;startArrow=classic;startFill=1;entryX=0.25;entryY=1;entryDx=0;entryDy=0;" parent="qUHiKCZmazpI1G1EhrRY-134" source="qUHiKCZmazpI1G1EhrRY-86" edge="1" target="qUHiKCZmazpI1G1EhrRY-10">
          <mxGeometry x="0.7071" relative="1" as="geometry">
            <mxPoint x="110.08000000000001" y="740" as="targetPoint" />
            <Array as="points">
              <mxPoint x="100" y="1380" />
            </Array>
            <mxPoint as="offset" />
          </mxGeometry>
        </mxCell>
        <mxCell id="qUHiKCZmazpI1G1EhrRY-115" value="uses" style="edgeStyle=orthogonalEdgeStyle;rounded=0;orthogonalLoop=1;jettySize=auto;html=1;exitX=0;exitY=0.5;exitDx=0;exitDy=0;entryX=0;entryY=1;entryDx=0;entryDy=0;dashed=1;dashPattern=1 2;startArrow=classic;startFill=1;endArrow=none;endFill=0;" parent="qUHiKCZmazpI1G1EhrRY-134" source="qUHiKCZmazpI1G1EhrRY-87" target="qUHiKCZmazpI1G1EhrRY-10" edge="1">
          <mxGeometry x="0.6956" relative="1" as="geometry">
            <mxPoint as="offset" />
          </mxGeometry>
        </mxCell>
        <mxCell id="qUHiKCZmazpI1G1EhrRY-116" value="Rules" style="rounded=0;whiteSpace=wrap;html=1;" parent="qUHiKCZmazpI1G1EhrRY-134" vertex="1">
          <mxGeometry x="280.00000000000006" y="560" width="120" height="60" as="geometry" />
        </mxCell>
        <mxCell id="qUHiKCZmazpI1G1EhrRY-132" style="edgeStyle=orthogonalEdgeStyle;rounded=0;orthogonalLoop=1;jettySize=auto;html=1;entryX=1;entryY=0.5;entryDx=0;entryDy=0;dashed=1;" parent="qUHiKCZmazpI1G1EhrRY-134" source="qUHiKCZmazpI1G1EhrRY-1" target="qUHiKCZmazpI1G1EhrRY-116" edge="1">
          <mxGeometry relative="1" as="geometry">
            <Array as="points">
              <mxPoint x="440" y="510" />
              <mxPoint x="440" y="590" />
            </Array>
          </mxGeometry>
        </mxCell>
        <mxCell id="qUHiKCZmazpI1G1EhrRY-124" value="creates" style="edgeStyle=orthogonalEdgeStyle;rounded=0;orthogonalLoop=1;jettySize=auto;html=1;entryX=0;entryY=0.5;entryDx=0;entryDy=0;exitX=1;exitY=0.5;exitDx=0;exitDy=0;" parent="qUHiKCZmazpI1G1EhrRY-134" source="qUHiKCZmazpI1G1EhrRY-10" target="qUHiKCZmazpI1G1EhrRY-116" edge="1">
          <mxGeometry x="0.0487" relative="1" as="geometry">
            <Array as="points">
              <mxPoint x="230" y="710" />
              <mxPoint x="230" y="590" />
            </Array>
            <mxPoint as="offset" />
          </mxGeometry>
        </mxCell>
        <mxCell id="I7plZfuhkyHUxym0sDsi-2" value="&lt;font style=&quot;font-size: 28px;&quot;&gt;&lt;b style=&quot;&quot;&gt;Connect Game -&amp;nbsp;&lt;/b&gt;&lt;b&gt;program diagram&lt;/b&gt;&lt;br&gt;&lt;/font&gt;" style="text;html=1;strokeColor=none;fillColor=none;align=center;verticalAlign=middle;whiteSpace=wrap;rounded=0;fontSize=24;" parent="qUHiKCZmazpI1G1EhrRY-134" vertex="1">
          <mxGeometry x="300.08000000000004" y="60" width="600" height="50" as="geometry" />
        </mxCell>
        <mxCell id="oUQiEzLGOZXI0GbjZNam-2" value="creates" style="edgeStyle=orthogonalEdgeStyle;rounded=0;orthogonalLoop=1;jettySize=auto;html=1;entryX=0.5;entryY=1;entryDx=0;entryDy=0;" parent="qUHiKCZmazpI1G1EhrRY-134" source="oUQiEzLGOZXI0GbjZNam-1" target="qUHiKCZmazpI1G1EhrRY-125" edge="1">
          <mxGeometry x="-0.4114" y="10" relative="1" as="geometry">
            <mxPoint as="offset" />
          </mxGeometry>
        </mxCell>
        <mxCell id="oUQiEzLGOZXI0GbjZNam-3" value="creates" style="edgeStyle=orthogonalEdgeStyle;rounded=0;orthogonalLoop=1;jettySize=auto;html=1;entryX=0.5;entryY=1;entryDx=0;entryDy=0;" parent="qUHiKCZmazpI1G1EhrRY-134" source="oUQiEzLGOZXI0GbjZNam-1" target="qUHiKCZmazpI1G1EhrRY-127" edge="1">
          <mxGeometry x="-0.4121" y="-10" relative="1" as="geometry">
            <mxPoint as="offset" />
          </mxGeometry>
        </mxCell>
        <mxCell id="oUQiEzLGOZXI0GbjZNam-4" value="creates" style="edgeStyle=orthogonalEdgeStyle;rounded=0;orthogonalLoop=1;jettySize=auto;html=1;entryX=0.5;entryY=0;entryDx=0;entryDy=0;" parent="qUHiKCZmazpI1G1EhrRY-134" source="oUQiEzLGOZXI0GbjZNam-1" target="qUHiKCZmazpI1G1EhrRY-2" edge="1">
          <mxGeometry relative="1" as="geometry">
            <Array as="points">
              <mxPoint x="600" y="320" />
              <mxPoint x="600" y="320" />
            </Array>
            <mxPoint as="offset" />
          </mxGeometry>
        </mxCell>
        <mxCell id="oUQiEzLGOZXI0GbjZNam-1" value="script" style="rounded=1;whiteSpace=wrap;html=1;" parent="qUHiKCZmazpI1G1EhrRY-134" vertex="1">
          <mxGeometry x="540.04" y="240" width="120" height="60" as="geometry" />
        </mxCell>
      </root>
    </mxGraphModel>
  </diagram>
</mxfile>
